<svg width="300" height="293" viewBox="0 0 300 293" fill="none" xmlns="http://www.w3.org/2000/svg">
<path d="M150.001 0C67.1687 0 0 67.1563 0 150.001C0 216.276 42.9799 272.503 102.58 292.337C110.077 293.726 112.829 289.083 112.829 285.121C112.829 281.544 112.69 269.728 112.625 257.194C70.8946 266.268 62.089 239.496 62.089 239.496C55.2656 222.158 45.4341 217.548 45.4341 217.548C31.8245 208.238 46.4599 208.429 46.4599 208.429C61.5227 209.487 69.4539 223.887 69.4539 223.887C82.8325 246.818 104.545 240.189 113.105 236.356C114.451 226.661 118.338 220.044 122.628 216.298C89.3107 212.505 54.2869 199.643 54.2869 142.167C54.2869 125.79 60.1466 112.409 69.7421 101.904C68.1846 98.1263 63.0503 82.8698 71.1952 62.2082C71.1952 62.2082 83.7913 58.1768 112.456 77.5839C124.421 74.2604 137.254 72.5937 150.001 72.5365C162.749 72.5937 175.591 74.2604 187.579 77.5839C216.209 58.1768 228.787 62.2082 228.787 62.2082C236.952 82.8698 231.815 98.1263 230.258 101.904C239.876 112.409 245.696 125.79 245.696 142.167C245.696 199.78 210.605 212.465 177.203 216.179C182.583 220.834 187.377 229.962 187.377 243.957C187.377 264.027 187.203 280.18 187.203 285.121C187.203 289.113 189.904 293.79 197.507 292.317C257.075 272.46 300 216.253 300 150.001C300 67.1563 232.841 0 150.001 0ZM56.1803 213.68C55.85 214.425 54.6775 214.649 53.6094 214.137C52.5215 213.648 51.9104 212.632 52.2631 211.884C52.5861 211.116 53.761 210.903 54.8465 211.417C55.9369 211.906 56.5579 212.932 56.1803 213.68ZM63.5587 220.264C62.8434 220.927 61.4449 220.619 60.496 219.571C59.5149 218.525 59.331 217.126 60.0564 216.453C60.7941 215.79 62.1503 216.1 63.134 217.146C64.1151 218.204 64.3064 219.593 63.5587 220.264ZM68.6206 228.687C67.7015 229.326 66.1987 228.727 65.2697 227.393C64.3507 226.059 64.3507 224.459 65.2896 223.819C66.2211 223.178 67.7015 223.754 68.643 225.078C69.5595 226.434 69.5595 228.034 68.6206 228.687ZM77.1813 238.443C76.3591 239.349 74.6079 239.106 73.3262 237.869C72.0146 236.659 71.6495 234.943 72.4742 234.036C73.3063 233.127 75.0674 233.383 76.3591 234.61C77.6607 235.817 78.0581 237.546 77.1813 238.443ZM88.2451 241.736C87.8825 242.911 86.1959 243.445 84.4968 242.946C82.8003 242.432 81.69 241.056 82.0328 239.868C82.3855 238.686 84.0795 238.129 85.791 238.664C87.485 239.175 88.5979 240.541 88.2451 241.736ZM100.836 243.133C100.878 244.37 99.4378 245.396 97.6543 245.418C95.8609 245.458 94.4103 244.457 94.3904 243.24C94.3904 241.991 95.7988 240.975 97.5922 240.945C99.3757 240.91 100.836 241.904 100.836 243.133ZM113.206 242.659C113.419 243.866 112.18 245.106 110.409 245.436C108.667 245.754 107.055 245.009 106.834 243.812C106.618 242.575 107.88 241.335 109.619 241.015C111.392 240.707 112.98 241.432 113.206 242.659Z" fill="#3E3E3E"/>
</svg>
